# xmcd
#
# Track frame offsets:
#	150
#	22600
#	41557
#	65512
#	83215
#	99290
#	116630
#	132330
#	147737
#	164540
#	179452
#
# Disc length: 2606 seconds
#
# Revision: 10
# Processed by: cddbd v1.5.2PL0 Copyright (c) Steve Scherf et al.
# Submitted via: EasyCDDAExtractor 15.3.0.1
#
DISCID=940a2c0b
DTITLE=Ana Gabriel - Vivencias
DYEAR=1996
DGENRE=Latin
TTITLE0=No Te Hago Falta
TTITLE1=Es Tarde Ya
TTITLE2=Solo Fantasia (Como Imaginar)
TTITLE3=Yo No Te Dije Adios
TTITLE4=Fue En Un Cafe (Under The Boardwalk)
TTITLE5=No Sabes
TTITLE6=Miedo
TTITLE7=Esta Noche
TTITLE8=Tu No Te Imaginas
TTITLE9=Que Hare Sin Ti
TTITLE10=Under The Boardwalk
EXTD=
EXTT0=
EXTT1=
EXTT2=
EXTT3=
EXTT4=
EXTT5=
EXTT6=
EXTT7=
EXTT8=
EXTT9=
EXTT10=
PLAYORDER=
